{"title":"Ruth Rendell Mysteries 2 Miniserie DVD9rip English Klam","uid":6155539,"size":3791154955,"categoryP":"video","categoryS":"movies","magnet":"?xt=urn:btih:11ba345f6bb72ae83f99e060c3b61d886ada104a&amp;dn=Ruth+Rendell+Mysteries+2+Miniserie+DVD9rip+English+Klam&amp;tr=udp%3A%2F%2Ftracker.openbittorrent.com%3A80&amp;tr=udp%3A%2F%2Fopen.demonii.com%3A1337&amp;tr=udp%3A%2F%2Ftracker.coppersurfer.tk%3A6969&amp;tr=udp%3A%2F%2Fexodus.desync.com%3A6969","seeders":3,"leechers":3,"uploader":"Klambake","files":-1,"time":1297022945,"description":"A Case of Coincidence,\nAfter four attractive women are found strangled in and around the local river, the free-spirited wife of a London doctor is killed while on an extramarital assignation.\n\nHeartstones,\nAfter the death of his wife seems Luke not really mourning. His daughters Elvira and Spinny do have great difficulty in losing their mother. Elvira suspects her father of being behind their mother's death...\n\nThe Secret House of Death,\nA lonely divorcÃƒÂ©e becomes involved with a neighbor whose wife and her lover carried out a suicide pact.\n\nGeneral:\n\nComplete name                    : Ruth Rendell Mysteries 2\\A Case of Coincidence\\Part One.avi\nFormat                           : AVI\nFormat/Info                      : Audio Video Interleave\nFile size                        : 603 MiB\nDuration                         : 50mn 40s\nOverall bit rate                 : 1 663 Kbps\n\nVideo:\n\nFormat                           : MPEG-4 Visual\nFormat profile                   : Simple@L3\nFormat settings, BVOP            : No\nFormat settings, QPel            : No\nFormat settings, GMC             : No warppoints\nFormat settings, Matrix          : Default (H.263)\nCodec ID                         : XVID\nCodec ID/Hint                    : XviD\nDuration                         : 50mn 40s\nBit rate                         : 1 428 Kbps\nWidth                            : 640 pixels\nHeight                           : 480 pixels\nDisplay aspect ratio             : 4:3\nFrame rate                       : 25.000 fps\nColor space                      : YUV\nChroma subsampling               : 4:2:0\nBit depth                        : 8 bits\nScan type                        : Progressive\nBits/(Pixel*Frame)               : 0.186\nStream size                      : 517 MiB (86%)\nWriting library                  : XviD 1.1.2 (UTC 2006-11-01)\n\nAudio:\n\nFormat                           : AC-3\nFormat/Info                      : Audio Coding 3\nMode extension                   : CM (complete main)\nCodec ID                         : 2000\nDuration                         : 50mn 40s\nBit rate mode                    : Constant\nBit rate                         : 224 Kbps\nChannel(s)                       : 2 channels\nChannel positions                : Front: L R\nSampling rate                    : 48.0 KHz\nBit depth                        : 16 bits\nStream size                      : 81.2 MiB (13%)\nAlignment                        : Aligned on interleaves\nInterleave, duration             : 32 ms (0.80 video frame)\n","torrent":{"xt":"urn:btih:11ba345f6bb72ae83f99e060c3b61d886ada104a","amp;dn":"Ruth+Rendell+Mysteries+2+Miniserie+DVD9rip+English+Klam","amp;tr":["udp%3A%2F%2Ftracker.openbittorrent.com%3A80","udp%3A%2F%2Fopen.demonii.com%3A1337","udp%3A%2F%2Ftracker.coppersurfer.tk%3A6969","udp%3A%2F%2Fexodus.desync.com%3A6969"],"infoHash":"11ba345f6bb72ae83f99e060c3b61d886ada104a","infoHashBuffer":{"type":"Buffer","data":[17,186,52,95,107,183,42,232,63,153,224,96,195,182,29,136,106,218,16,74]},"announce":[],"urlList":[]}}